<?xml version="1.0" standalone="no"?>
<!DOCTYPE svg PUBLIC "-//W3C//DTD SVG 20010904//EN"
 "http://www.w3.org/TR/2001/REC-SVG-20010904/DTD/svg10.dtd">
<svg version="1.0" xmlns="http://www.w3.org/2000/svg"
 width="330.000000pt" height="330.000000pt" viewBox="0 0 330.000000 330.000000"
 preserveAspectRatio="xMidYMid meet">
<metadata>
Created by potrace 1.14, written by Peter Selinger 2001-2017
</metadata>
<g transform="translate(0.000000,330.000000) scale(0.100000,-0.100000)"
fill="#000000" stroke="none">
<path d="M1389 2977 c-229 -225 -880 -865 -1215 -1194 -79 -78 -144 -143 -144
-145 0 -2 114 -3 252 -3 l253 0 1 -760 1 -760 1096 0 c727 0 1097 3 1097 10 1
5 1 346 1 758 1 411 4 748 8 748 3 1 116 2 251 3 157 1 243 5 241 11 -3 6
-122 125 -265 265 -142 140 -282 278 -309 306 l-50 51 0 342 1 341 -21 1 c-12
0 -132 1 -267 1 l-245 1 0 -81 c1 -45 0 -82 -2 -82 -3 0 -143 137 -323 315
l-115 114 -246 -242z m126 -1436 c6 -1 10 -68 10 -183 l0 -183 -186 -3 -186
-2 -1 180 c0 140 3 182 13 188 10 5 291 8 350 3z m592 -5 c5 -4 8 -273 4 -351
-1 -13 -29 -15 -186 -15 l-185 0 0 184 c0 165 2 185 17 188 29 5 344 1 350 -6z
m-597 -532 c13 -3 15 -31 15 -176 0 -95 -3 -178 -7 -183 -4 -7 -73 -10 -185
-10 l-178 0 -1 187 -1 186 171 1 c94 0 178 -2 186 -5z m601 -17 c0 -12 1 -95
2 -184 2 -137 0 -163 -13 -165 -8 -2 -91 -4 -185 -3 l-170 0 -3 186 -2 187
185 1 c185 1 185 1 186 -22z"/>
</g>
</svg>
